<svg width="26" height="26" viewBox="0 0 26 26" fill="none" xmlns="http://www.w3.org/2000/svg"
  class="item-icon">
  <rect opacity="0.01" x="1.5" y="1" width="24" height="24" fill="#C4C4C4"></rect>
  <path fill-rule="evenodd" clip-rule="evenodd"
    d="M16 3.5H6C5.72386 3.5 5.5 3.72386 5.5 4V21C5.5 21.2761 5.72386 21.5 6 21.5H10.5H11.5C12.0523 21.5 12.5 21.9477 12.5 22.5C12.5 23.0523 12.0523 23.5 11.5 23.5H10.5H6C4.61929 23.5 3.5 22.3807 3.5 21V4C3.5 2.61929 4.61929 1.5 6 1.5H16C19.5899 1.5 22.5 4.41015 22.5 8V11.2806V11.818V12.2806C22.5 12.8329 22.0523 13.2806 21.5 13.2806C20.9477 13.2806 20.5 12.8329 20.5 12.2806V11.818V11.2806V8C20.5 5.51472 18.4853 3.5 16 3.5ZM15 10.634C15.6667 11.0189 15.6667 11.9811 15 12.366L12 14.0981C11.3333 14.483 10.5 14.0019 10.5 13.2321V9.76795C10.5 8.99815 11.3333 8.51702 12 8.90192L15 10.634ZM23.9227 20.238C24.2799 19.6192 24.2799 18.8568 23.9227 18.238L22.3274 15.4748C21.9701 14.856 21.3098 14.4748 20.5953 14.4748H17.4047C16.6902 14.4748 16.0299 14.856 15.6727 15.4748L14.0774 18.238C13.7201 18.8568 13.7201 19.6192 14.0774 20.238L15.6727 23.0011C16.0299 23.6199 16.6902 24.0011 17.4047 24.0011H20.5953C21.3098 24.0011 21.9701 23.6199 22.3274 23.0011L23.9227 20.238ZM17.2604 16.7248C17.3497 16.5701 17.5148 16.4748 17.6934 16.4748H20.3066C20.4853 16.4748 20.6503 16.5701 20.7397 16.7248L22.0463 18.988C22.1356 19.1427 22.1356 19.3333 22.0463 19.488L20.7397 21.7511C20.6503 21.9058 20.4853 22.0011 20.3066 22.0011H17.6934C17.5148 22.0011 17.3497 21.9058 17.2604 21.7511L15.9538 19.488C15.8644 19.3333 15.8644 19.1427 15.9538 18.988L17.2604 16.7248ZM19 17.9879C18.3096 17.9879 17.75 18.5476 17.75 19.2379C17.75 19.9283 18.3096 20.4879 19 20.4879C19.6904 20.4879 20.25 19.9283 20.25 19.2379C20.25 18.5476 19.6904 17.9879 19 17.9879Z"
    fill="var(--text2)"></path>
</svg>